<svg version="1" xmlns="http://www.w3.org/2000/svg" width="1166.667" height="1166.667" viewBox="0 0 875.000000 875.000000"><path d="M416.8 10.5c-.2.2-3.2.6-6.8.9-3.6.4-8.5.8-11 1.1-2.5.3-7 .8-10 1.1-7.5.7-11.8 1.2-16.5 2-2.2.3-5.3.8-7 1-1.6.3-3.7.7-4.5.9-.8.2-3.1.6-5 .9-7.6 1.2-19 3.9-35 8.3-33.5 9.2-66.7 23.1-99 41.6-9.9 5.7-34.9 21.5-36 22.7-.3.3-2.7 2.1-5.3 4l-4.8 3.4 9.8 9.9c12.4 12.7 60.4 60.7 67 67l4.9 4.8 13.1-7.9c13-7.9 35.1-19.2 45.4-23.2 3-1.2 6.8-2.8 8.4-3.5 5.8-2.5 28.1-9.7 33.9-10.9 1.2-.3 6.2-1.4 11.1-2.5 13.3-3 24.8-4.8 35.5-5.8 17.5-1.5 64.5-.8 74.7 1.1 1 .2 4.1.7 6.8 1 2.8.4 10 1.8 16.2 3.1 6.1 1.4 12.3 2.6 13.7 2.9 6.3 1.1 33 10.1 42.1 14.1 1.7.7 5.3 2.3 8 3.5 12.6 5.5 31.8 15.7 40.8 21.6 5.4 3.5 10 6.4 10.2 6.4.3 0 18.8-18.3 41.1-40.6l40.7-40.7-2.4-1.9c-6.3-5-27.6-19.3-38.4-25.8-15.4-9.2-44.1-23.3-62-30.3-18.8-7.4-49.4-16.8-61.8-19.1-1.5-.2-3.5-.7-4.5-1-1.7-.5-2.5-.7-12.2-2.5-10.3-1.9-11.5-2.1-21.5-3.6-13.1-1.8-18.7-2.4-32-3-14.7-.7-47.3-1.4-47.7-1zM87.1 189.2c-22.1 29.9-47 78.9-59.7 117.6-9 27-17.1 63.7-18.9 84.7-.3 3.8-.8 8.8-1 11C5.6 420 5.2 448.1 6.4 465c.5 5.8.9 12.3 1.1 14.5.5 6.6 1.7 17.8 2.1 20 .2 1.1.7 4.7 1 8 .3 3.3.8 6.3 1 6.7.3.4.7 2.3.9 4.2 2.5 19 12.6 53.6 24.7 84.1 5.5 13.9 19 42.3 23.9 50.5 1.2 1.9 2.9 4.9 3.8 6.5 2.4 4.5 27 41.3 28 41.9 1 .7 17.6-15.2 54.9-52.4l28.2-28.2-3.4-4.7c-7.5-10.2-21.2-36.6-29.4-56.3-8.4-20-16.1-47.7-18.7-66.8-.3-2.5-.8-5.2-1-6-.2-.8-.7-4.7-1-8.5-.4-3.9-1-10.2-1.5-14-.8-7.2-.6-48.4.3-52 .2-1.1.8-5.1 1.2-8.9.8-7.9 1-9.4 3-19.1.8-3.9 1.6-8.4 1.9-10 .3-1.7 1.9-8.2 3.5-14.5 7.9-30.4 20.6-59.5 39.1-88.9 5-8 5.1-8.3 3.5-10.7-.9-1.4-19.1-20.1-40.4-41.6l-38.8-39.2-7.2 9.6zM779.5 183c-10.8 9.9-77.4 77.1-77.9 78.6-.5 1.6 1.4 5.7 7.7 16 16.7 27.7 30.6 60.7 36.2 85.4 1.7 7.6 5.5 26.4 6 30 .4 2.4.8 4.7 1 5 2.6 4.2 2.6 68.2.1 84-.3 1.4-.7 4.7-1.1 7.5-1.1 9.1-1.6 11.9-4.1 22.5-8.2 34.9-22.9 70.2-40.9 98-7.7 11.9-8.3 9.3 6.2 24.1 23.5 23.9 67.3 67.4 68.2 67.7 1 .3 7.2-7.6 12.8-16.3 1.8-2.7 3.7-5.7 4.3-6.5 34-49.9 56.9-109.6 66.6-173 .3-2.5.8-5.2.9-6 .3-1.4.6-4.2 2.1-16.5 2.5-20.9 2.4-67-.1-86-.2-1.7-.6-5.3-.9-8-1.6-15.3-4.4-30.5-8.6-48-2.6-10.5-10.3-36.2-13.9-46.4-12.5-34.9-33-73.7-55.6-105.1-5.7-7.8-7-8.8-9-7zM422.9 239.4c-.2.2-2.9.7-5.9 1-21 2.3-41.5 7.7-61.5 16.1-5.5 2.3-10.8 4.5-11.8 4.9-1.7.5-1.4 1.1 2.1 5.4 2.2 2.6 22.5 23.3 45 46l41.1 41.2 6.5-.3 6.5-.3 37.7-37.9c45.2-45.6 51.3-52.3 49.3-53.6-.8-.5-7.2-3.2-14.4-6-7.1-2.7-13.9-5.4-15-5.9-1.9-.9-19.3-5.6-24.1-6.4-6.8-1.3-14.3-2.6-17.9-3.1-4.8-.8-37-1.6-37.6-1.1zM570.7 390l-44.5 44v14l42.1 41.9c42.1 41.9 47.4 47.1 48.2 47.1.6 0 5.6-11.1 9.8-21.5 1.9-5 5.4-15.7 7.6-23.8 4.6-16.8 5.5-25.7 5.5-52.7 0-22.4-.9-30.3-5.3-47.7-3.5-13.4-15.6-44.3-17.8-45-.6-.2-21.1 19.4-45.6 43.7zM256.6 351.2c-1.4 2.4-3.4 6.5-4.6 9.3-1.2 2.7-2.5 5.9-3 7-3.9 8.9-11.3 36.9-12.6 47.6-.9 7.3-.9 36.1 0 47.9 1.3 17.5 7.2 39.6 15.8 59.6 7.3 17 3.7 18.1 30.8-8.6 52.8-51.9 66.8-66.2 66.5-68-.2-.9-.4-3.9-.6-6.6-.2-4.1-.8-5.5-3.8-8.6-27.2-27.8-83.8-83.8-84.8-83.8-.7 0-2.3 1.9-3.7 4.2zM386.3 574.4L341 619.5l4.8 2.4c9.1 4.6 29.2 12.4 37.7 14.6 18.6 4.8 36.7 7.1 54.5 6.9 20-.2 30.4-1.5 51.7-6.5 13.7-3.2 43.9-15.7 43.1-17.9-.2-.8-65.8-66.9-83.7-84.5-5-4.8-5.3-4.9-11.4-5.1l-6.2-.1-45.2 45.1zM251.4 710.2c-12.4 11.1-70.9 70.2-72.4 73.1-.9 1.8-1 3.1-.4 3.5 13 9 40.9 27 46.9 30.4 29.4 16.5 75.6 34.8 107.5 42.6 13.9 3.4 12.7 3.2 33.5 6.6 13.4 2.2 18.4 2.9 30.5 4.2 28.6 3.1 68.8 2.2 100-2.2 14.3-2 23.6-3.7 43-7.9 12.4-2.6 45.4-13.3 55.5-17.9 1.7-.8 11-4.9 20.9-9.2 29.6-12.9 51.5-25.6 78.6-45.5l4.9-3.6-33.5-33.4c-18.5-18.4-34.6-34.3-35.8-35.4-1.2-1.1-4.5-4.1-7.3-6.8-2.9-2.6-5.6-4.7-6.1-4.7s-6.2 3.2-12.7 7.1c-36.1 21.6-77.8 37.5-111.5 42.5-1.9.3-4.8.8-6.5 1.1-11.2 2-30.9 3-54 2.7-14.3-.1-27.6-.5-29.5-.8-1.9-.3-5.7-.8-8.5-1.1-6.6-.8-30.2-5.5-33.3-6.6-1.2-.5-3.7-1.1-5.5-1.5-4.9-.8-29-9.1-41.2-14.1-15.2-6.2-34.7-16.2-45.5-23.3-5-3.3-9.4-6-9.9-6s-3.9 2.8-7.7 6.2z"/></svg>